<svg width="200" height="200" xmlns="http://www.w3.org/2000/svg">
 <defs>
  <style>.cls-1{fill:#00bfd8;}.cls-2{fill:#d9a78c;}.cls-3{fill:#f1f2f2;}.cls-4{fill:#e6e7e8;}.cls-5{fill:#eac0a7;}.cls-6{fill:#f2d7bc;}.cls-7{fill:#2f343a;}.cls-8{fill:#a0b2be;}.cls-9{fill:#fff;}</style>
 </defs>
 <title>team-member-2</title>
 <g>
  <title>background</title>
  <rect fill="#ff0000" id="canvas_background" height="202" width="202" y="-1" x="-1"/>
 </g>
 <g>
  <title>Layer 1</title>
  <rect id="svg_1" height="200" width="200" class="cls-1"/>
  <polygon id="svg_2" points="116.453 177.645 100.393 198.046 83.551 177.645 83.551 143.521 116.453 143.521 116.453 177.645" class="cls-2"/>
  <path stroke="#444444" fill="#FFA9A2" id="svg_3" d="m83.2174,165.000002s-35.2761,4.572 -39.896,9.3841c-5.5079,5.7395 -10.9019,10.029 -14.3214,25.5951l70.6661,0l0,-3.9081l-16.4487,-31.0711z" class="cls-3"/>
  <path stroke="#666666" id="svg_4" d="m116.4532,165.0208s35.2736,4.572 39.8935,9.3841c4.022,4.1925 12.3865,16.7868 14.32,25.5951l-70.6673,0l0,-3.9081l16.4538,-31.0711z" class="cls-4"/>
  <path id="svg_5" d="m100.0007,40.2857c15.9749,0 41.2384,9.0821 41.2384,51.6384c0,24.57 -8.0108,40.6666 -11.5011,45.12c-3.2115,4.097 -21.266,12.828 -29.7374,12.828l0,-109.5864l0.0001,0z" class="cls-5"/>
  <path id="svg_6" d="m149.1866,102.0711c0.7035,-6.8 -2.5352,-12.8331 -7.235,-13.4786s-9.0821,4.3448 -9.7868,11.1448c-0.706,6.7972 2.5352,12.83 7.2362,13.4759c4.6998,0.6429 9.0795,-4.3447 9.7856,-11.1421z" class="cls-5"/>
  <path id="svg_7" d="m100.0007,40.2857c-15.975,0 -41.2385,9.0821 -41.2385,51.6384c0,24.57 8.0107,40.6666 11.501,45.12c3.2115,4.097 21.266,12.828 29.7375,12.828l0,-109.5864z" class="cls-6"/>
  <path id="svg_8" d="m50.8161,102.0711c-0.7048,-6.8 2.5352,-12.8331 7.2337,-13.4786c4.7023,-0.6454 9.082,4.3448 9.788,11.1448c0.7048,6.7972 -2.5364,12.83 -7.2362,13.4759c-4.6997,0.6429 -9.0816,-4.3447 -9.7855,-11.1421z" class="cls-6"/>
  <path id="svg_9" d="m64.2532,102.8171l2.8475,0s-1.7322,-11.0827 3.3483,-14.6609l0,-7.1587s-1.9632,-0.23 -1.9632,-8.6561c0,-8.429 10.0437,-14.4312 31.5149,-14.4312l0,-30.8267s-42.4441,0.9036 -42.4441,31.7084l0,29.8266a7.1354,7.1354 0 0 1 5.31,1.3088c2.3871,2.0008 1.3866,12.8898 1.3866,12.8898z" class="cls-7"/>
  <path id="svg_10" d="m135.7493,102.8171l-2.8474,0s1.7309,-11.0827 -3.3471,-14.6609l0,-7.1587s1.9621,-0.23 1.9621,-8.6561c0,-8.429 -10.0437,-14.4312 -31.5161,-14.4312l0,-30.8267s42.444,-0.9682 42.444,29.8354l0,31.7a7.136,7.136 0 0 0 -5.31,1.3088c-2.3859,2.0004 -1.3855,12.8894 -1.3855,12.8894z" class="cls-7"/>
  <polygon stroke="#444444" id="svg_11" points="100.001 196.092 88.82 168.17 84.692 185.39 100.001 196.092" class="cls-8"/>
  <polygon stroke="#444444" id="svg_12" points="83.086 161.066 88.955 168.694 84.692 185.39 75.676 173.228 83.086 161.066" class="cls-9"/>
  <polygon stroke="#444444" id="svg_13" points="100.002 196.092 110.127 167.721 115.312 185.39 100.002 196.092" class="cls-8"/>
  <polygon stroke="#444444" id="svg_14" points="116.915 161.066 109.991 168.243 115.312 185.39 125.109 173.228 116.915 161.066" class="cls-9"/>
  <path id="svg_15" d="m99.9994,131.5427c7.4466,0 13.4824,-2.4577 13.4824,-5.4937l-26.9648,0c0,3.036 6.0358,5.4937 13.4824,5.4937z" class="cls-9"/>
  <path id="svg_16" d="m54.5,194.453125" opacity="0.5" stroke-width="null" stroke="#ea8d8a" fill="#FFA9A2"/>
 </g>
</svg>